<svg data-v-6805eed4="" version="1.0" xmlns="http://www.w3.org/2000/svg" xmlns:xlink="http://www.w3.org/1999/xlink" width="100%" height="100%" viewBox="0 0 128 128" preserveAspectRatio="xMidYMid meet" color-interpolation-filters="sRGB" style="margin: auto;">
<g fill="#333" transform="translate(0,0)">
      <rect fill="#333" fill-opacity="0" stroke-width="2" x="0" y="0" width="128" height="128" class="image-rect"/>
      <svg viewBox="0 0 60 58.661348037777906" x="0" y="0" width="128" height="128" class="image-svg-svg bn" style="overflow: visible;">
        <g hollow-target="iconBnFill" mask="url(#fdc84698-7369-47cb-9ce7-7e8ce1162483)">
          <g>
            <svg xmlns="http://www.w3.org/2000/svg" viewBox="0.03419 -0.0032 291.27557 284.77563" style="overflow: visible;" width="60" height="58.661348037777906" x="0" y="0" filtersec="colorsf953259473" filter="url(#va7p4Gyib4ijet26iWzl_)">
              <g transform="scale(1, 1) skewX(0)">
                <g>
                  <path d="M287.78 192.13c-2.19-3.91-.23-7.53-3.19-10.37-1 4.75 0 9 3.13 11.17 3.31 2.34 3.12 6.07 1.93 7.15-3.3 3-.53 5.67-.72 8.4a80.74 80.74 0 0 1-4.87 22.8c-1 2.82-2.21 5.5-2.43 8.57-.14 2-.27 3.66-3.41 4.34-3.49.74-4.35 5-6 8.18 1.91.42 2.17-2.48 4.56-1.06-1.78 7.69-6.5 13.69-12.14 19.17a2 2 0 0 1-2.28.32c-4.11-1.65-6-.41-5.79 3.75.05 1.08-.61 1.42-1.29 1.87a27 27 0 0 1-8 3.93c-1 .24-2.08 1.13-2.75-.8-.87-2.5-1.54-2.7-3.38-.79-6.51 6.77-14.81 4.48-22.54 5.16 5.1-4.29 11.7-3.73 17.49-6 8.93-3.48 17.3-7.29 23.77-14.56.63-.7 1.42-1.82 2.42-1.2.51.31.39 1.63.79 3.76.85-5.3 6.34-8 3.41-13.31-1.72-.05-2.1 1.49-2.88 2.38-10.86 12.47-24.2 20.27-40.89 21.37-9.93.65-19.32 4.36-29.42 4.27s-20.08 1.35-30.12-.22c-2-.32-4-.32-5.71 1a5 5 0 0 1-4.32.71c-6.17-1.51-12.25-.07-18.28.68-5.69.7-10.92-1.62-16.68-1.31-7.47.41-14.78 2-22.23 2.18-2.21.06-5 2-6.49-1.52-.09-.21-.92-.37-1.23-.2-11.19 5.89-21.73 1.31-32.08-2.42-10-3.62-19.11-9.44-27.67-15.68-8.15-5.94-12.56-14.73-14-24.76-.39-2.69-2.86-3.8-3.65-6.27-2.33-7.32-2.27-14.57-1.29-22.1.78-6 1.23-12.19-1.19-18.14-.88 4.42-2.68 8.53-1.36 13.25.9 3.21 3 7.24-2.41 9.18-1.34.48-.12 1.79.31 2.47 2 3.18 2.54 6.8 3.31 10.37 3.93 18.24 11.86 34.1 27.16 45.58a22.14 22.14 0 0 1 2.67 2.24 2.57 2.57 0 0 1 .46 3.2c-.92 1.23-2.14.25-3.05-.37a76 76 0 0 1-15.85-14.37c-5.93-7.1-11.34-14.85-13-23.88-1.95-10.33-5.31-20.38-4.84-31.33.79-18.27.29-36.61.11-54.92-.13-12.75-1.42-25.49-.55-38.25.19-2.81.05-5.69.68-8.39a29.76 29.76 0 0 0-1.5-18 6.94 6.94 0 0 1 .38-5.82A10.24 10.24 0 0 0 1 74a4.88 4.88 0 0 1-.61-2.83C2.72 61.38 3.45 51.15 10.6 43c3.4-3.92 5.45-9 8.09-13.5 1.38-2.38 2.45-4.57 5.64-5.69 4.08-1.43 5.53-6.69 9.84-8.39 1.84-.73 3.12-4.78 5.65-.78.12.18 1.27-.13 1.83-.42a14.62 14.62 0 0 0 3.39-2c2.92-2.73 9.23-1.58 9.85-4C56.2 3 60 3.59 63.08 2.27a20.05 20.05 0 0 1 11.79-1.15C80.6 2.28 86 1.57 91.61.45c2.33-.46 5-1 7 1.32.21.25.55.68.7.63 7.68-2.5 15.38 4.25 23.32-.51 4.23-2.54 9.55-2 14.65-1.36a112.77 112.77 0 0 0 15.93.38c7.69-.16 15.28.18 22.7 2.42a22.67 22.67 0 0 0 8.88.58c-.33-1.23-2-.37-2.27-2.41 4-.09 8.11-1.55 12 .89 1.48.94 2.44-.19 3.64-.19 2 0 4-.23 6-.13 3 .13 7.69-1.15 8 2.76.34 4.11-4.67 1.6-7 2.94 4.42 1 8.17 0 11.21-3.52a7.27 7.27 0 0 1 5.81-2.32c10-.08 18.71 3.34 27.14 8.41 4.57 2.76 8.42 6.49 13.62 8.49s9 6.41 12.39 10.94a84.94 84.94 0 0 1 8.75 15.67c1.14 2.5 3.3 4.75.05 7.73-1.49 1.37-.83 4.36.92 7l1-4.44c2.23 10 6.33 19.66 5 30.1-.25 2 .75 4.93-3.5 4.28-2.15-.33-1.38 2.28-1.25 3.54.39 3.63 2.35 7.63 1.36 10.76-1.86 5.92.14 10.81 1.88 16 .93 2.76-.46 5.23-.62 7.85-.63 10.58.94 21.11-.21 31.8a65.59 65.59 0 0 0 .6 16c.69 4.87-.31 9.94-1.53 16.07zm-277.18-.37c-.15-11.77 2.12-23.74-2.44-36-1.77 12.79-1.84 24.57 2.44 36zM242.87 23.17c-6.62-8-38.63-10.38-47.59-6.25 16.29 3.08 33.02-3.81 47.59 6.25zM166.3 6.07c-12.51-.63-25.09-2-37.22 2l.07 1.48h9.06l-3.44-.87c11.14-2.47 21.69 2.25 31.53-2.61zM3.94 113.75c-.82 6 3.36 10.93 3.51 16.92s-2 12.21.7 19.42c2.28-15.46-.18-29.72-.54-44-2.92 4 .4 8.5-.52 13.2-2.29-1.95-1.63-4.1-3.15-5.54zm53.34-103.1c1.36 1.26 2.4 1.19 3.27.67 7.62-4.47 16-3.25 24.24-3.38a17.33 17.33 0 0 0 4-.26c1.37-.34 3.36-.77 3-2.63-.41-2.25-2.32-1.33-3.63-.85-6.53 2.37-13.3 2-20.07 2.32-3.76.16-7.97.48-10.81 4.13z"/>
                </g>
              </g>
              <defs>
                <filter id="va7p4Gyib4ijet26iWzl_">
                  <feColorMatrix type="matrix" values="0 0 0 0 0.19921875  0 0 0 0 0.19921875  0 0 0 0 0.19921875  0 0 0 1 0"/>
                </filter>
              </defs>
            </svg>
          </g>
          <g filter="url(#colors4406324529)">
            <svg xmlns="http://www.w3.org/2000/svg" xmlns:xlink="http://www.w3.org/1999/xlink" viewBox="0 0 46.01953125 49.53515625" width="45" height="43.99601" x="7.5" y="7.332669018888954" class="image-svg-letter">
              <path transform="translate(-3.26953125 49.53515625)" d="M37.37-49.54L37.37-49.54Q39.62-49.54 41.80-47.53L41.80-47.53Q44.23-45.84 45.28-44.86L45.28-44.86Q45.98-43.84 45.98-43.84L45.98-43.84Q46.65-42.43 46.65-41.06L46.65-41.06Q46.65-39.16 45.32-37.51L45.32-37.51L35.82-25.73L35.82-25.70Q36.25-25.21 47.53-13.01L47.53-13.01Q49.29-11.21 49.29-9L49.29-9L49.29-8.86Q49.29-6.01 46.83-4.22L46.83-4.22Q43.49-1.37 42.86-1.34L42.86-1.34Q41.91-0.95 40.82-0.95L40.82-0.95Q38.14-0.95 36.07-3.52L36.07-3.52L26.30-13.89Q25.52-13.01 20.64-6.89L20.64-6.89Q16.73-2.04 16.14-1.41L16.14-1.41Q14.41 0 12.48 0L12.48 0L12.34 0Q10.30 0 8.40-1.58L8.40-1.58Q6.54-2.71 5.52-3.73L5.52-3.73Q4.18-5.38 4.18-7.49L4.18-7.49Q4.18-9.56 6.01-11.67L6.01-11.67L16.00-24.93L16.00-24.96Q15.47-25.45 9.18-32.20L9.18-32.20Q4.04-37.62 4.01-37.86L4.01-37.86Q3.27-39.16 3.27-40.61L3.27-40.61L3.27-40.71Q3.27-43.77 6.19-45.70L6.19-45.70Q9.46-48.52 10.16-48.52L10.16-48.52Q10.86-48.87 12.13-48.87L12.13-48.87Q14.70-48.87 16.63-46.55L16.63-46.55L25.24-37.20L33.26-47.81Q35.09-49.54 37.37-49.54Z"/>
            </svg>
          </g>
        </g>
        <mask id="fdc84698-7369-47cb-9ce7-7e8ce1162483">
          <g fill="white">
            <svg xmlns="http://www.w3.org/2000/svg" viewBox="0.03419 -0.0032 291.27557 284.77563" style="overflow: visible;" width="60" height="58.661348037777906" x="0" y="0" filtersec="colorsf953259473">
              <g transform="scale(1, 1) skewX(0)">
                <g>
                  <path d="M287.78 192.13c-2.19-3.91-.23-7.53-3.19-10.37-1 4.75 0 9 3.13 11.17 3.31 2.34 3.12 6.07 1.93 7.15-3.3 3-.53 5.67-.72 8.4a80.74 80.74 0 0 1-4.87 22.8c-1 2.82-2.21 5.5-2.43 8.57-.14 2-.27 3.66-3.41 4.34-3.49.74-4.35 5-6 8.18 1.91.42 2.17-2.48 4.56-1.06-1.78 7.69-6.5 13.69-12.14 19.17a2 2 0 0 1-2.28.32c-4.11-1.65-6-.41-5.79 3.75.05 1.08-.61 1.42-1.29 1.87a27 27 0 0 1-8 3.93c-1 .24-2.08 1.13-2.75-.8-.87-2.5-1.54-2.7-3.38-.79-6.51 6.77-14.81 4.48-22.54 5.16 5.1-4.29 11.7-3.73 17.49-6 8.93-3.48 17.3-7.29 23.77-14.56.63-.7 1.42-1.82 2.42-1.2.51.31.39 1.63.79 3.76.85-5.3 6.34-8 3.41-13.31-1.72-.05-2.1 1.49-2.88 2.38-10.86 12.47-24.2 20.27-40.89 21.37-9.93.65-19.32 4.36-29.42 4.27s-20.08 1.35-30.12-.22c-2-.32-4-.32-5.71 1a5 5 0 0 1-4.32.71c-6.17-1.51-12.25-.07-18.28.68-5.69.7-10.92-1.62-16.68-1.31-7.47.41-14.78 2-22.23 2.18-2.21.06-5 2-6.49-1.52-.09-.21-.92-.37-1.23-.2-11.19 5.89-21.73 1.31-32.08-2.42-10-3.62-19.11-9.44-27.67-15.68-8.15-5.94-12.56-14.73-14-24.76-.39-2.69-2.86-3.8-3.65-6.27-2.33-7.32-2.27-14.57-1.29-22.1.78-6 1.23-12.19-1.19-18.14-.88 4.42-2.68 8.53-1.36 13.25.9 3.21 3 7.24-2.41 9.18-1.34.48-.12 1.79.31 2.47 2 3.18 2.54 6.8 3.31 10.37 3.93 18.24 11.86 34.1 27.16 45.58a22.14 22.14 0 0 1 2.67 2.24 2.57 2.57 0 0 1 .46 3.2c-.92 1.23-2.14.25-3.05-.37a76 76 0 0 1-15.85-14.37c-5.93-7.1-11.34-14.85-13-23.88-1.95-10.33-5.31-20.38-4.84-31.33.79-18.27.29-36.61.11-54.92-.13-12.75-1.42-25.49-.55-38.25.19-2.81.05-5.69.68-8.39a29.76 29.76 0 0 0-1.5-18 6.94 6.94 0 0 1 .38-5.82A10.24 10.24 0 0 0 1 74a4.88 4.88 0 0 1-.61-2.83C2.72 61.38 3.45 51.15 10.6 43c3.4-3.92 5.45-9 8.09-13.5 1.38-2.38 2.45-4.57 5.64-5.69 4.08-1.43 5.53-6.69 9.84-8.39 1.84-.73 3.12-4.78 5.65-.78.12.18 1.27-.13 1.83-.42a14.62 14.62 0 0 0 3.39-2c2.92-2.73 9.23-1.58 9.85-4C56.2 3 60 3.59 63.08 2.27a20.05 20.05 0 0 1 11.79-1.15C80.6 2.28 86 1.57 91.61.45c2.33-.46 5-1 7 1.32.21.25.55.68.7.63 7.68-2.5 15.38 4.25 23.32-.51 4.23-2.54 9.55-2 14.65-1.36a112.77 112.77 0 0 0 15.93.38c7.69-.16 15.28.18 22.7 2.42a22.67 22.67 0 0 0 8.88.58c-.33-1.23-2-.37-2.27-2.41 4-.09 8.11-1.55 12 .89 1.48.94 2.44-.19 3.64-.19 2 0 4-.23 6-.13 3 .13 7.69-1.15 8 2.76.34 4.11-4.67 1.6-7 2.94 4.42 1 8.17 0 11.21-3.52a7.27 7.27 0 0 1 5.81-2.32c10-.08 18.71 3.34 27.14 8.41 4.57 2.76 8.42 6.49 13.62 8.49s9 6.41 12.39 10.94a84.94 84.94 0 0 1 8.75 15.67c1.14 2.5 3.3 4.75.05 7.73-1.49 1.37-.83 4.36.92 7l1-4.44c2.23 10 6.33 19.66 5 30.1-.25 2 .75 4.93-3.5 4.28-2.15-.33-1.38 2.28-1.25 3.54.39 3.63 2.35 7.63 1.36 10.76-1.86 5.92.14 10.81 1.88 16 .93 2.76-.46 5.23-.62 7.85-.63 10.58.94 21.11-.21 31.8a65.59 65.59 0 0 0 .6 16c.69 4.87-.31 9.94-1.53 16.07zm-277.18-.37c-.15-11.77 2.12-23.74-2.44-36-1.77 12.79-1.84 24.57 2.44 36zM242.87 23.17c-6.62-8-38.63-10.38-47.59-6.25 16.29 3.08 33.02-3.81 47.59 6.25zM166.3 6.07c-12.51-.63-25.09-2-37.22 2l.07 1.48h9.06l-3.44-.87c11.14-2.47 21.69 2.25 31.53-2.61zM3.94 113.75c-.82 6 3.36 10.93 3.51 16.92s-2 12.21.7 19.42c2.28-15.46-.18-29.72-.54-44-2.92 4 .4 8.5-.52 13.2-2.29-1.95-1.63-4.1-3.15-5.54zm53.34-103.1c1.36 1.26 2.4 1.19 3.27.67 7.62-4.47 16-3.25 24.24-3.38a17.33 17.33 0 0 0 4-.26c1.37-.34 3.36-.77 3-2.63-.41-2.25-2.32-1.33-3.63-.85-6.53 2.37-13.3 2-20.07 2.32-3.76.16-7.97.48-10.81 4.13z"/>
                </g>
              </g>
              <defs/>
            </svg>
          </g>
          <g fill="black">
            <svg xmlns="http://www.w3.org/2000/svg" xmlns:xlink="http://www.w3.org/1999/xlink" viewBox="0 0 46.01953125 49.53515625" width="45" height="43.99601" x="7.5" y="7.332669018888954" class="image-svg-letter">
              <path transform="translate(-3.26953125 49.53515625)" d="M37.37-49.54L37.37-49.54Q39.62-49.54 41.80-47.53L41.80-47.53Q44.23-45.84 45.28-44.86L45.28-44.86Q45.98-43.84 45.98-43.84L45.98-43.84Q46.65-42.43 46.65-41.06L46.65-41.06Q46.65-39.16 45.32-37.51L45.32-37.51L35.82-25.73L35.82-25.70Q36.25-25.21 47.53-13.01L47.53-13.01Q49.29-11.21 49.29-9L49.29-9L49.29-8.86Q49.29-6.01 46.83-4.22L46.83-4.22Q43.49-1.37 42.86-1.34L42.86-1.34Q41.91-0.95 40.82-0.95L40.82-0.95Q38.14-0.95 36.07-3.52L36.07-3.52L26.30-13.89Q25.52-13.01 20.64-6.89L20.64-6.89Q16.73-2.04 16.14-1.41L16.14-1.41Q14.41 0 12.48 0L12.48 0L12.34 0Q10.30 0 8.40-1.58L8.40-1.58Q6.54-2.71 5.52-3.73L5.52-3.73Q4.18-5.38 4.18-7.49L4.18-7.49Q4.18-9.56 6.01-11.67L6.01-11.67L16.00-24.93L16.00-24.96Q15.47-25.45 9.18-32.20L9.18-32.20Q4.04-37.62 4.01-37.86L4.01-37.86Q3.27-39.16 3.27-40.61L3.27-40.61L3.27-40.71Q3.27-43.77 6.19-45.70L6.19-45.70Q9.46-48.52 10.16-48.52L10.16-48.52Q10.86-48.87 12.13-48.87L12.13-48.87Q14.70-48.87 16.63-46.55L16.63-46.55L25.24-37.20L33.26-47.81Q35.09-49.54 37.37-49.54Z"/>
            </svg>
          </g>
        </mask>
      </svg>
      <defs>
        <filter id="colors4406324529">
          <feColorMatrix type="matrix" values="0 0 0 0 0.19921875  0 0 0 0 0.19921875  0 0 0 0 0.19921875  0 0 0 1 0" class="icon-fecolormatrix"/>
        </filter>
        <filter id="colorsf953259473">
          <feColorMatrix type="matrix" values="0 0 0 0 0.99609375  0 0 0 0 0.99609375  0 0 0 0 0.99609375  0 0 0 1 0" class="icon-fecolormatrix"/>
        </filter>
        <filter id="colorsb2555304960">
          <feColorMatrix type="matrix" values="0 0 0 0 0  0 0 0 0 0  0 0 0 0 0  0 0 0 1 0" class="icon-fecolormatrix"/>
        </filter>
      </defs>
    </g>
    <g transform="translate(53.81970977783203,114.63941955566406)">
      <g data-gra="path-name" fill-rule="" class="tp-name iconsvg-namesvg">
        <g transform="scale(1)">
          <g>
            <path d="" transform="translate(0, 0)"/>
          </g>
        </g>
      </g>
    </g>
</svg>
